<?xml version="1.0" encoding="utf-8"?>
<!-- Generator: Adobe Illustrator 21.1.0, SVG Export Plug-In . SVG Version: 6.00 Build 0)  -->
<svg version="1.1" id="Layer_1" xmlns="http://www.w3.org/2000/svg" xmlns:xlink="http://www.w3.org/1999/xlink" x="0px" y="0px"
	 viewBox="0 0 1024 872" style="enable-background:new 0 0 1024 872;" xml:space="preserve">
<style type="text/css">
	.st0{fill:#78E041;}
	.st1{fill:#2383E5;}
	.st2{fill:#FFFFFF;}
</style>
<g>
	<path class="st0" d="M921.9,194.4l-430.3,10.5c-55.1,9.1-95.7,46.9-102.1,104l-20.4,270.3c0,57.4,44.8,88.4,102.1,104l145.7,24.3
		L797.8,872l-24-138.3l104,17.3c56.4,0,102.1-46.6,102.1-104l44.2-348.6C1024,240.9,978.3,194.4,921.9,194.4L921.9,194.4z"/>
	<path class="st1" d="M809.6,218.5c-7.4-66.4-54.8-110.4-119.1-121L119,0.8C53.3,0.7,0,54.9,0,121.7l23.8,532.5
		c0,66.8,53.3,121,119.1,121l295.2-62.5l-21.3,123l169.8-154.4l127.8-27.1c66.9-18.2,119-54.2,119-121L809.6,218.5L809.6,218.5z"/>
	<path class="st2" d="M539.6,265c3.5,3.6,7.4,6.5,11.6,8.7c4.2,2.1,8.7,3.5,13.2,3.8c4.5,0.3,8.6-0.5,12.3-2.1s6.8-4,9.3-7.2
		c2.5-3.1,4.4-6.9,5.4-11.1c1.1-4.3,1.3-9,0.8-14c-0.6-5-2-9.9-4.2-14.4c-2.1-4.6-5-8.7-8.3-12.3c-3.4-3.6-7.1-6.7-11.3-8.9
		c-4.1-2.2-8.5-3.8-13.1-4.2c-4.6-0.5-8.8,0.1-12.6,1.6c-3.8,1.5-7,3.9-9.7,7c-2.7,3.2-4.6,6.9-5.8,11.3c-1.2,4.4-1.5,9.3-0.9,14.5
		c0.7,5.2,2.2,10.2,4.5,14.8C533.2,257.1,536.2,261.3,539.6,265z M409.3,233.8c4.3,4.4,9.3,7.9,14.5,10.5c5.3,2.6,10.9,4.3,16.6,4.7
		c5.6,0.4,10.9-0.4,15.4-2.2c4.5-1.8,8.5-4.7,11.6-8.3c3.1-3.6,5.5-8,6.8-13c1.3-4.9,1.8-10.5,1-16.4c-0.7-5.9-2.5-11.7-5.2-17
		c-2.7-5.4-6.2-10.4-10.3-14.6c-4.1-4.4-8.9-8-14-10.7c-5.2-2.8-10.7-4.7-16.4-5.4c-5.7-0.7-11.1,0-15.8,1.6
		c-4.8,1.7-8.9,4.4-12.2,8c-3.3,3.6-5.8,8-7.4,13.2c-1.4,5.1-1.9,10.9-1.1,17.1c0.8,6.2,2.7,12.1,5.6,17.7
		C401.1,224.4,404.9,229.5,409.3,233.8L409.3,233.8z M632.8,251.3c2.9,3.3,6.3,5.9,9.8,7.8c3.5,1.9,7.4,3.2,11.2,3.5
		c3.8,0.3,7.4-0.3,10.5-1.8c3.1-1.4,5.8-3.6,7.9-6.4c2.1-2.7,3.7-6.1,4.7-9.9c0.9-3.8,1.1-8,0.6-12.5s-1.8-8.9-3.6-12.9
		c-1.8-4.1-4.3-7.8-7-11.1c-2.8-3.3-6.1-6-9.6-7.9c-3.5-2.1-7.3-3.4-11.2-3.8c-3.9-0.5-7.5,0.1-10.7,1.3c-3.2,1.3-6,3.5-8.2,6.2
		c-2.2,2.8-3.9,6.2-4.9,10.1s-1.2,8.2-0.7,12.9s1.9,9.1,3.8,13.3C627.3,244.3,629.9,248,632.8,251.3L632.8,251.3z M364.6,588.8
		l-1.7-0.7l-1.8-0.8l-1.1-0.5c-0.6-0.2-1.3-0.6-2-0.8c-0.7-0.3-1.4-0.7-2-0.9c-0.5-0.2-0.9-0.3-1-0.4c-5.3-2.1-9.8-4.6-13.7-7.5
		c-3.9-2.9-7.1-6.3-9.8-10.4c-2.6-4.1-4.7-8.7-6.2-14.3c-1.5-5.6-2.5-12.1-3-19.6l-0.7-15l-0.7-14.9l-0.6-14.8l-0.5-14.7l-0.7-21.3
		l-0.7-21l-0.8-20.7l-0.9-20.4c-0.3-3.5-0.3-6.4,0.1-8.7c0.4-2.3,1-4.2,2.1-5.5c1.1-1.4,2.4-2.3,4.3-2.9c1.8-0.6,4-0.8,6.7-0.8h1.5
		c0.3,0,0.5,0,0.8,0.1c0.3,0,0.6,0,0.8,0.1l3.5,0.1c1.2,0,2.3,0.1,3.5,0.1c1.2,0,2.3,0,3.5,0.1l3.5,0.2h1.6c2.1,0.1,4-0.2,5.7-0.8
		c1.8-0.6,3.4-1.5,4.7-2.7c1.4-1.1,2.7-2.6,3.7-4.4c1-1.7,1.8-3.7,2.5-6c0.7-2.1,1-4.3,1.2-6.4c0.2-2,0.1-4.1-0.2-6.1
		c-0.3-2-0.9-3.9-1.7-5.8c-0.9-1.9-1.9-3.7-3.4-5.5c-0.1-0.2-0.3-0.4-0.4-0.6l-0.5-0.6l-0.5-0.5l-0.5-0.5c-1.6-1.7-3.2-3.1-4.8-4.3
		c-1.7-1.2-3.4-2.2-5.2-3c-1.8-0.8-3.6-1.5-5.5-2c-1.9-0.5-3.9-0.9-5.9-1.2c-5.8-1-10.3-1.8-13.8-3.1c-3.5-1.2-6-2.8-7.7-5.2
		s-2.8-5.5-3.4-9.9c-0.6-4.4-0.8-9.9-0.8-17.1v-1.9v-1.9v-2c0-0.7,0-1.2-0.1-1.9c-0.1-2.1-0.2-4.2-0.5-6.4c-0.2-2.1-0.6-4.2-1-6.2
		c-0.4-2-0.9-4-1.5-6c-0.6-1.9-1.3-3.9-2.1-5.7c-1.3-3.2-2.9-6.2-4.7-9c-1.9-2.9-3.9-5.5-6.2-8c-2.3-2.4-4.8-4.7-7.5-6.7
		c-2.7-2-5.7-3.7-8.8-5.1c-5.1-2.3-10.3-4.5-15.6-6.5c-5.3-1.9-10.6-3.8-16-5.3c-5.4-1.6-10.9-2.9-16.4-4c-5.6-1.1-11.3-1.9-17-2.4
		l-1.9-0.2c-0.7,0-1.3-0.1-1.9-0.1l-1.9-0.1c-0.7,0-1.3-0.1-1.9-0.1c-1.7,0-3.4,0-4.9,0.1c-1.6,0.1-3.2,0.3-4.7,0.7
		c-1.5,0.3-3,0.7-4.4,1.2c-1.5,0.5-2.9,1.1-4.2,1.7c-1.3,0.7-2.5,1.3-3.7,2.1c-1.1,0.7-2.3,1.6-3.4,2.5c-1.1,0.9-2.1,1.9-3,2.9
		s-1.9,2.1-2.8,3.4c-1.2,1.5-2.2,3.2-3.2,5s-1.7,3.7-2.4,5.7c-0.7,2-1.3,4.1-1.7,6.3c-0.4,2.2-0.7,4.5-0.9,6.8
		c-0.2,2.3-0.3,4.6-0.3,6.9c-0.1,2.3-0.2,4.6-0.2,6.9c-0.1,2.3-0.1,4.6-0.2,6.9l-0.2,6.9l-0.2,5.9c-0.1,1.7-0.2,3.3-0.3,4.6
		c-0.2,1.3-0.4,2.5-0.7,3.5c-0.2,1-0.6,1.8-1,2.5c-0.6,0.9-1.3,1.5-2.2,2c-0.9,0.5-2.1,0.8-3.5,1c-1.4,0.2-3.2,0.3-5.2,0.3
		s-4.4,0-7.1-0.1c-2.2-0.1-4.4,0.1-6.4,0.5c-2.1,0.4-4,1-5.8,1.9c-1.8,0.8-3.5,1.9-5.1,3.1c-1.5,1.2-2.9,2.6-4.2,4.2
		c-0.6,0.7-1.1,1.4-1.6,2.2c-0.5,0.8-1,1.6-1.4,2.4c-0.4,0.8-0.8,1.7-1.2,2.5c-0.3,0.9-0.7,1.8-0.9,2.7l-0.6,2.6
		c-0.2,0.9-0.3,1.7-0.4,2.7c-0.1,0.4-0.1,0.9-0.1,1.3v4.3c0.3,4.2,1.2,8.2,2.8,11.9s3.8,7,6.6,9.9c2.8,2.9,6.2,5.4,10.1,7.3
		c3.9,1.9,8.3,3.3,13.2,4c3.2,0.5,5.9,1.3,8,2.3c2.1,1.1,3.8,2.4,5.1,4.2c1.3,1.7,2.1,3.8,2.7,6.3c0.5,2.4,0.7,5.3,0.7,8.5
		l-0.3,25.6c-0.1,8.6-0.2,17.1-0.2,25.7c0,8.5-0.1,17.1-0.1,25.7v32.9c0,2.3,0,4.8,0.1,7.1v7.1c0,2.3,0,4.8,0.1,7.1
		c0,6.1,0.3,12.1,0.7,18.1c0.4,6,1,12,1.9,17.9c0.8,5.9,1.9,11.7,3.3,17.5c1.3,5.7,3,11.4,5,17c1.6,4.5,3.5,8.5,5.8,12.2
		c2.2,3.6,4.8,6.8,7.7,9.7c2.9,2.8,6,5.2,9.6,7.3c3.5,2.1,7.3,3.8,11.4,5.1c3.3,1.1,6.5,2,9.9,2.6s6.6,1,9.9,1.3
		c3.4,0.2,6.6,0.2,9.9,0.1c3.4-0.1,6.6-0.4,9.9-0.8h0.4c0-0.1,0.1-0.1,0.1-0.1l3.4-0.5l3.4-0.5c1.1-0.2,2.1-0.4,3.3-0.7
		c1.1-0.2,2.2-0.4,3.4-0.7l23.5-5l23-5.2l22.5-5.2l22.2-5.2l3.2-0.7c1-0.3,2.1-0.5,3.1-0.7l3.1-0.7l3.1-0.7l-3.3-1.4L364.6,588.8
		L364.6,588.8z M209.2,174.8c3,5,6.7,9.7,10.7,13.5c4,3.9,8.5,7,13.3,9.1c1.1,0.5,2.2,0.9,3.3,1.3c1.1,0.4,2.2,0.7,3.3,1
		s2.1,0.6,3.2,0.7c1,0.2,2.1,0.3,3.2,0.4c3.7,0.4,7.2,0.2,10.5-0.5c3.3-0.7,6.4-1.9,9.2-3.6c2.8-1.7,5.3-3.8,7.4-6.2
		c2.1-2.4,3.9-5.3,5.1-8.5c0-0.1,0.1-0.3,0.1-0.3l0.1-0.3c0-0.1,0-0.2,0.1-0.3s0.1-0.2,0.1-0.3c0-0.1,0-0.1,0.1-0.2
		c0-0.1,0-0.1,0.1-0.2c0-0.1,0-0.1,0.1-0.2c0-0.1,0-0.1,0.1-0.2c0.3-0.8,0.5-1.7,0.7-2.5c0.2-0.8,0.3-1.7,0.5-2.6l0.3-2.7l0.1-2.8
		c0-1.5,0-2.9-0.1-4.4c-0.1-1.5-0.2-2.9-0.4-4.4c-0.2-1.4-0.4-2.8-0.7-4.2c-0.3-1.4-0.6-2.8-0.9-4.2c-1.2-4.4-2.8-8.6-4.8-12.7
		c-2-4-4.4-7.7-7.2-11.1c-2.7-3.4-5.9-6.5-9.4-9.1c-3.5-2.7-7.3-4.9-11.4-6.7c-0.8-0.4-1.7-0.7-2.4-1c-0.8-0.3-1.7-0.6-2.5-0.8
		l-2.5-0.6c-0.9-0.1-1.7-0.3-2.5-0.4c-2-0.3-4-0.4-5.9-0.3c-1.9,0.1-3.8,0.2-5.6,0.6c-1.8,0.3-3.6,0.9-5.3,1.5
		c-1.7,0.6-3.4,1.5-4.9,2.3l-0.4,0.3l-0.4,0.2l-0.3,0.2l-0.4,0.3l-0.7,0.5l-0.7,0.5c-0.3,0.2-0.5,0.3-0.7,0.6l-0.7,0.6l-1,0.9l-1,1
		l-0.9,1c-0.3,0.3-0.6,0.7-0.9,1.1l-0.5,0.7l-0.5,0.8l-0.5,0.8l-0.5,0.8c-0.6,0.9-1.1,1.9-1.5,2.9c-0.4,1-0.9,2.2-1.3,3.3
		s-0.7,2.2-0.9,3.4c-0.2,1.2-0.4,2.3-0.6,3.5l-0.1,1.1l-0.1,1.1v2.2c-0.1,5.6,0.8,11.4,2.4,17S206.1,169.8,209.2,174.8L209.2,174.8z
		 M714.2,488.8c0-1-0.1-2-0.1-3c-0.3-4.7-0.7-9.3-1.2-13.8c-0.5-4.6-1.2-9.1-1.8-13.8l-2-14l-8.5-68.7l-8.9-70.9
		c-0.3-2.5-0.8-4.9-1.3-7.1c-0.6-2.2-1.3-4.3-2.1-6.2c-0.8-1.9-1.8-3.7-2.8-5.4c-1.1-1.7-2.2-3.2-3.5-4.6c-1.3-1.5-2.8-2.7-4.4-3.9
		c-1.6-1.2-3.3-2.2-5-3.1c-1.8-0.8-3.8-1.7-5.8-2.3c-2-0.6-4.2-1.2-6.4-1.6l-2.7-0.5l-2.7-0.4l-2.7-0.4l-2.7-0.4l-1.8-0.3L646,268
		l-1.7-0.2c-0.6-0.1-1.1-0.1-1.7-0.2c-2.1-0.2-4-0.2-5.7,0c-1.8,0.2-3.4,0.5-4.7,1c-1.3,0.5-2.7,1.3-3.7,2.2c-1,1-1.9,2.1-2.7,3.5
		c-0.5,1-1,2.2-1.4,3.6s-0.7,2.8-0.9,4.4c-0.2,1.6-0.3,3.4-0.4,5.3c-0.1,1.9,0,4,0,6.2l7.8,84.6l1.7,18.2c1,10.9,2.4,25.6,3.9,40.6
		l4,42.5l2.2,23.8c0.3,3.5,0.7,6.7,1,9.5c0.3,2.8,0.5,5.2,0.4,7.2c-0.1,2-0.5,3.7-1.3,4.9c-0.9,1.2-2.3,2.1-4.4,2.5h-0.2l-0.1,0.1
		h-0.1c-1.6,0.1-2.9-1.3-4-3.5c-1-2.1-1.8-5-2.4-8c-0.6-2.9-0.9-5.9-1.2-8l-0.3-3.7c-0.7-6.5-1.6-14.2-2.6-22.9
		c-1-8.7-2.1-18.5-3.2-29.1c-1.1-10.6-2.3-22-3.7-34c-1.3-12-2.7-24.5-4-37.5l-1.5-13.7l-1.4-13.4l-1.3-12.7l-1.3-12.1
		c-0.4-3.8-1-7.4-1.9-10.8c-0.9-3.5-2-6.6-3.5-9.7c-1.5-3-3.3-5.7-5.5-8.2c-2.2-2.5-4.9-4.8-7.9-6.6c-0.3-0.2-0.7-0.4-1-0.7
		c-0.3-0.2-0.7-0.3-1-0.6c-0.3-0.2-0.7-0.4-1.1-0.6l-1.1-0.6c-2.4-1-4.9-1.9-7.5-2.7c-2.5-0.7-5.1-1.3-7.7-1.9
		c-2.6-0.5-5.2-0.9-7.7-1.3c-2.7-0.5-5.3-0.9-7.9-1.4c-0.8-0.2-1.5-0.3-2.3-0.4c-0.7-0.2-1.4-0.3-2.1-0.3l-2.1-0.3
		c-0.7,0-1.4-0.1-2.1-0.1c-2.5-0.1-4.8-0.1-7,0.1c-2.1,0.2-4.2,0.7-6,1.2c-1.8,0.7-3.5,1.4-5,2.3c-1.5,1-2.9,2.1-4.1,3.5
		c-1.3,1.4-2.4,3.2-3.4,5.1c-0.9,1.9-1.6,4.1-2.1,6.5c-0.5,2.4-0.8,5-0.8,7.9c-0.1,2.9,0,6,0.3,9.3c0.6,5.3,1.1,10.5,1.6,15.8
		l1.4,15.8l1.3,15.8l1.2,15.8c0.4,5.9,1.3,16.3,2.6,29c1.2,12.7,2.8,27.7,4.6,42.8c1.8,15.1,3.7,30.3,5.7,43.4
		c1.9,13.1,3.9,24.1,5.7,31c0.7,2.3,1.2,4.6,1.8,6.9c0.6,2.3,1.3,4.9,2.2,7.9c0.9,3,2.1,6.6,3.7,11.1c1.6,4.4,3.5,9.8,6,16.4
		c5.3-0.9,10.6-1.8,16.1-2.9c9.3-1.7,18.5-3.4,27.7-5l26.9-4.7c8.8-1.6,17.5-3.2,26.1-4.8c8.5-1.6,17-3.2,25.3-4.9
		c5.6-1.1,10.4-3,14.6-5.6c4.1-2.5,7.5-5.9,10.3-9.9c2.7-4,4.8-8.8,6.3-14.3c1.4-5.4,2.3-11.7,2.5-18.6l-0.1-10.9L714.2,488.8z
		 M541.6,562.7c-3.4-3.4-7-8.4-10.5-16.4c-3.5-8-7-18.9-10.2-33.9c-1-6-1.9-13.1-2.8-20.8c-0.9-7.7-1.8-16.1-2.7-24.8
		c-0.9-8.7-1.8-17.8-2.6-27l-2.4-27.2c-0.2-2.9-0.5-5.9-0.7-8.8c-0.3-2.9-0.5-5.9-0.7-8.8l-0.7-8.7l-0.7-8.8l-1.3-16l-1.3-16.1
		l-1.5-16l-1.7-16c-0.3-2.8-0.7-5.6-1.1-8.1c-0.5-2.5-1-4.9-1.6-7.2c-0.7-2.2-1.3-4.4-2.1-6.4c-0.8-2-1.7-3.9-2.7-5.6
		c-1.6-2.7-3.4-5.1-5.4-7.4c-2-2.2-4.4-4.2-7-6c-2.7-1.8-5.7-3.5-9-4.9c-3.4-1.5-7.1-2.8-11.3-4.1c-2.5-0.7-5.1-1.5-7.7-2.2l-7.8-2
		l-7.9-1.7c-2.7-0.6-5.4-1-8-1.5c-0.8-0.2-1.7-0.3-2.5-0.4l-2.4-0.3l-2.4-0.2l-2.3-0.2c-4.7-0.3-9-0.2-12.9,0.3
		c-3.9,0.7-7.4,1.7-10.5,3.3c-3.1,1.6-5.8,3.6-8.1,6.2c-2.3,2.5-4.3,5.6-5.9,9.2c-0.7,1.8-1.4,3.6-2,5.5c-0.6,2-1.1,4-1.5,6.2
		c-0.4,2.2-0.8,4.5-1.1,7s-0.4,5-0.6,7.7c0,0.8,0,1.6-0.1,2.3v5.7l0.1,4c0,1.3,0.1,2.7,0.2,4l0.8,14.7l0.8,14.5l0.7,14.4l0.7,14.5
		l0.9,18.8l0.9,18.8l1.1,18.9c0.4,6.4,0.8,12.7,1.3,19.1c0.6,7.4,1,14.7,1.5,22.1c0.5,7.4,1,14.7,1.7,22c0.7,7.4,1.4,14.6,2.6,21.8
		c1.1,7.3,2.5,14.5,4.4,21.6c1.9,7.3,4.5,13.7,7.7,19.2c3.2,5.5,7,10.2,11.5,14c4.5,3.8,9.6,6.7,15.2,8.9c5.7,2.1,11.9,3.6,18.8,4.2
		c1.9,0.2,3.7,0.3,5.5,0.4c1.7,0.1,3.4,0.2,4.9,0.2h4.8l4.8-0.4c1.7-0.1,3.4-0.3,5.2-0.6l5.8-0.8l6.7-1.1l7.9-1.3l22.8-3.7
		c7-1.1,13.7-2.1,20.1-3.1l18.8-3l2.7-0.5c-2-0.7-4.5-1-7.4-1.9c-2.9-0.9-6.1-2.4-9.5-5.7L541.6,562.7z"/>
</g>
</svg>
