<?xml version="1.0" encoding="utf-8"?>
<!-- Generator: Adobe Illustrator 22.1.0, SVG Export Plug-In . SVG Version: 6.00 Build 0)  -->
<svg version="1.1" id="Layer_1" xmlns="http://www.w3.org/2000/svg" xmlns:xlink="http://www.w3.org/1999/xlink" x="0px" y="0px"
	 viewBox="0 0 159.9 160" style="enable-background:new 0 0 159.9 160;" xml:space="preserve">
<style type="text/css">
	.st0{fill:#FF22B1;}
	.st1{fill:#1D1C39;}
</style>
<title>chat-mark-product-colours</title>
<g>
	<circle class="st0" cx="28.9" cy="131.1" r="15"/>
	<g>
		<circle class="st1" cx="108" cy="80" r="8"/>
		<circle class="st1" cx="80" cy="80" r="8"/>
		<circle class="st1" cx="52" cy="80" r="8"/>
		<path class="st1" d="M80,0C35.9,0,0,35.9,0,80c0,6.8,0.9,13.5,2.5,20.1c1.1,4.3,5.5,6.8,9.7,5.7c4.3-1.1,6.8-5.5,5.7-9.7
			c-1.3-5.2-2-10.6-2-16.1c0-35.3,28.7-64,64-64s64,28.7,64,64s-28.7,64-64,64c-5.7,0-11.3-0.7-16.7-2.2c-4.3-1.2-8.7,1.4-9.8,5.6
			c-1.2,4.3,1.4,8.7,5.6,9.8c6.8,1.8,13.8,2.8,20.9,2.8c44.1,0,80-35.9,80-80S124.1,0,80,0z"/>
	</g>
	<path class="st0" d="M28.9,116.1c-8.3,0-15,6.7-15,15s6.7,15,15,15s15-6.7,15-15S37.2,116.1,28.9,116.1z"/>
</g>
</svg>
